<svg width="16" height="15" viewBox="0 0 16 15" fill="none" xmlns="http://www.w3.org/2000/svg">
<path d="M5.86427 5.35479L4.44838 0.0708261C4.23154 0.0235482 4.00957 -0.000217355 3.78688 1.49778e-06C2.08587 1.49778e-06 0.707132 1.37882 0.707132 3.08012C0.704709 3.03491 0.707132 3.12533 0.707132 3.08012C0.707132 3.03491 0.644132 7.16911 4.45646 10.9816C8.26879 14.7941 12.6263 14.999 12.6263 14.999C12.5803 14.999 12.6715 15.0013 12.6263 14.999C14.3273 14.999 15.7061 13.6202 15.7061 11.9189C15.7061 11.6597 15.6737 11.4073 15.614 11.1662L10.4156 9.7738L9.61845 11.2491C9.61845 11.2491 8.32048 11.4548 6.28428 9.41817C4.24888 7.38234 4.45727 6.0879 4.45727 6.0879L5.86427 5.35479Z" fill="#171717"/>
</svg>
