<svg width="175" height="60" viewBox="0 0 175 60" fill="none" xmlns="http://www.w3.org/2000/svg">
<path d="M4.51924 15.2887L30 0.57735L55.4808 15.2887V44.7113L30 59.4226L4.51924 44.7113V15.2887Z" stroke="white"/>
<path d="M43.9961 40.043C43.9727 40.0586 43.8672 40.1133 43.6797 40.207C43.4922 40.3008 43.2461 40.4023 42.9414 40.5117C42.6367 40.6211 42.2891 40.7188 41.8984 40.8047C41.5078 40.8984 41.1016 40.9453 40.6797 40.9453C39.9922 40.9453 39.375 40.8242 38.8281 40.582C38.2812 40.3398 37.8164 39.9961 37.4336 39.5508C37.0586 39.1133 36.7695 38.582 36.5664 37.957C36.3633 37.3398 36.2617 36.6523 36.2617 35.8945C36.2617 35.168 36.3516 34.3711 36.5312 33.5039C36.7109 32.6289 36.9453 31.7305 37.2344 30.8086C37.5234 29.8867 37.8477 28.9648 38.207 28.043C38.5742 27.1211 38.9414 26.2461 39.3086 25.418C39.6836 24.582 40.0391 23.8203 40.375 23.1328C40.7109 22.4375 41 21.8594 41.2422 21.3984C40.8047 21.8984 40.3047 22.4766 39.7422 23.1328C39.1797 23.7812 38.5781 24.4961 37.9375 25.2773C37.3047 26.0508 36.6445 26.8789 35.957 27.7617C35.2695 28.6367 34.5742 29.5508 33.8711 30.5039C33.1758 31.4492 32.4844 32.4219 31.7969 33.4219C31.1094 34.4141 30.4531 35.4141 29.8281 36.4219L29.2656 36.2344C29.3828 34.9609 29.5742 33.6992 29.8398 32.4492C30.1133 31.1914 30.418 29.9844 30.7539 28.8281C31.0977 27.6641 31.457 26.5742 31.832 25.5586C32.2148 24.5352 32.5781 23.6211 32.9219 22.8164C32.3984 23.5352 31.875 24.3164 31.3516 25.1602C30.8359 25.9961 30.3125 26.8594 29.7812 27.75C29.25 28.6328 28.7031 29.5234 28.1406 30.4219C27.5781 31.3125 26.9922 32.1719 26.3828 33C25.7734 33.8203 25.1289 34.5898 24.4492 35.3086C23.7773 36.0195 23.0586 36.6367 22.293 37.1602C21.5352 37.6914 20.7227 38.1094 19.8555 38.4141C18.9961 38.7188 18.0742 38.8711 17.0898 38.8711C16.332 38.8711 15.6445 38.7578 15.0273 38.5312C14.4102 38.3047 13.8789 37.9922 13.4336 37.5938C12.9961 37.2031 12.6602 36.7422 12.4258 36.2109C12.1836 35.6797 12.0625 35.1055 12.0625 34.4883C12.0625 33.8867 12.1602 33.3438 12.3555 32.8594C12.543 32.3672 12.7969 31.9336 13.1172 31.5586C13.4375 31.1758 13.8086 30.8477 14.2305 30.5742C14.6602 30.293 15.1094 30.0625 15.5781 29.8828C16.0469 29.7031 16.5195 29.5703 16.9961 29.4844C17.4805 29.3984 17.9414 29.3555 18.3789 29.3555C19.2852 29.3555 20.1523 29.4648 20.9805 29.6836C21.8086 29.8945 22.6055 30.2734 23.3711 30.8203L22.9609 31.2773C22.9531 31.2695 22.8516 31.1992 22.6562 31.0664C22.4609 30.9258 22.1797 30.7734 21.8125 30.6094C21.4453 30.4453 20.9883 30.2969 20.4414 30.1641C19.9023 30.0312 19.2852 29.9648 18.5898 29.9648C17.918 29.9648 17.2656 30.0547 16.6328 30.2344C16.0078 30.4141 15.4531 30.6875 14.9688 31.0547C14.4922 31.4141 14.1094 31.8711 13.8203 32.4258C13.5312 32.9727 13.3867 33.6172 13.3867 34.3594C13.3867 34.8906 13.4883 35.3828 13.6914 35.8359C13.9023 36.2891 14.1914 36.6797 14.5586 37.0078C14.9258 37.3438 15.3672 37.6055 15.8828 37.793C16.3984 37.9805 16.9688 38.0742 17.5938 38.0742C18.5312 38.0742 19.4297 37.875 20.2891 37.4766C21.1484 37.0781 21.9766 36.5391 22.7734 35.8594C23.5703 35.1797 24.3359 34.3867 25.0703 33.4805C25.8125 32.5742 26.5234 31.6172 27.2031 30.6094C27.8906 29.6016 28.5547 28.5664 29.1953 27.5039C29.8359 26.4414 30.457 25.418 31.0586 24.4336C31.6602 23.4414 32.2461 22.5156 32.8164 21.6562C33.3867 20.7891 33.9453 20.043 34.4922 19.418L35.0195 19.7344C34.6758 20.7812 34.3789 21.7031 34.1289 22.5C33.8789 23.2891 33.6602 23.9844 33.4727 24.5859C33.293 25.1875 33.1367 25.707 33.0039 26.1445C32.8789 26.582 32.7695 26.9727 32.6758 27.3164C32.582 27.6602 32.4961 27.9727 32.418 28.2539C32.3477 28.5273 32.2734 28.8008 32.1953 29.0742C32.125 29.3477 32.043 29.6367 31.9492 29.9414C31.8555 30.2461 31.7422 30.6016 31.6094 31.0078C31.4766 31.4062 31.3203 31.8711 31.1406 32.4023C30.9609 32.9258 30.7422 33.5469 30.4844 34.2656C31.1406 33.2734 31.8125 32.2969 32.5 31.3359C33.1953 30.375 33.8867 29.4453 34.5742 28.5469C35.2617 27.6484 35.9336 26.7891 36.5898 25.9688C37.2539 25.1484 37.8789 24.3867 38.4648 23.6836C39.0586 22.9805 39.6016 22.3438 40.0938 21.7734C40.5938 21.1953 41.0273 20.7031 41.3945 20.2969C41.7617 19.8906 42.0469 19.5742 42.25 19.3477C42.4609 19.1211 42.5703 19.0039 42.5781 18.9961L43.0703 19.3594C42.6094 20.5 42.1523 21.6445 41.6992 22.793C41.2461 23.9336 40.8086 25.0469 40.3867 26.1328C39.9727 27.2188 39.5859 28.2656 39.2266 29.2734C38.8672 30.2812 38.5547 31.2266 38.2891 32.1094C38.0234 32.9844 37.8125 33.7852 37.6562 34.5117C37.5078 35.2305 37.4336 35.8477 37.4336 36.3633C37.4336 36.9727 37.5039 37.5234 37.6445 38.0156C37.793 38.5078 38.0039 38.9258 38.2773 39.2695C38.5508 39.6133 38.8867 39.875 39.2852 40.0547C39.6914 40.2422 40.1484 40.3359 40.6562 40.3359C41.0391 40.3359 41.4102 40.293 41.7695 40.207C42.1367 40.1211 42.4609 40.0273 42.7422 39.9258C43.0234 39.8242 43.25 39.7305 43.4219 39.6445C43.5938 39.5586 43.6836 39.5156 43.6914 39.5156L43.9961 40.043Z" fill="white"/>
<line x1="68.5" x2="68.5" y2="60" stroke="white"/>
<path d="M83.1953 12.1875C83.1953 11.8802 83.1536 11.6068 83.0703 11.3672C82.987 11.1224 82.849 10.9036 82.6562 10.7109C82.4635 10.5182 82.2005 10.3385 81.8672 10.1719C81.5391 10 81.1328 9.83073 80.6484 9.66406C80.1693 9.5026 79.737 9.32552 79.3516 9.13281C78.9714 8.9401 78.6432 8.71875 78.3672 8.46875C78.0964 8.21875 77.888 7.92708 77.7422 7.59375C77.6016 7.26042 77.5312 6.86979 77.5312 6.42188C77.5312 5.97917 77.6094 5.57812 77.7656 5.21875C77.9271 4.85417 78.151 4.54167 78.4375 4.28125C78.724 4.02083 79.0625 3.82031 79.4531 3.67969C79.8438 3.53906 80.276 3.46875 80.75 3.46875C81.4271 3.46875 82.0104 3.6224 82.5 3.92969C82.9948 4.23177 83.375 4.64062 83.6406 5.15625C83.9062 5.66667 84.0391 6.23698 84.0391 6.86719H83.1484C83.1484 6.3724 83.0547 5.93229 82.8672 5.54688C82.6849 5.16146 82.4141 4.85938 82.0547 4.64062C81.7005 4.41667 81.2682 4.30469 80.7578 4.30469C80.2474 4.30469 79.8177 4.40104 79.4688 4.59375C79.125 4.78125 78.8672 5.03385 78.6953 5.35156C78.5234 5.66406 78.4375 6.01042 78.4375 6.39062C78.4375 6.66146 78.4792 6.91146 78.5625 7.14062C78.6458 7.36979 78.7839 7.58073 78.9766 7.77344C79.1745 7.96615 79.4349 8.14844 79.7578 8.32031C80.0807 8.48698 80.4714 8.64323 80.9297 8.78906C81.4453 8.95573 81.8984 9.14062 82.2891 9.34375C82.6849 9.54167 83.0156 9.77604 83.2812 10.0469C83.5521 10.3125 83.7552 10.6198 83.8906 10.9688C84.0312 11.3177 84.1016 11.7188 84.1016 12.1719C84.1016 12.6406 84.0208 13.0599 83.8594 13.4297C83.6979 13.7943 83.4688 14.1068 83.1719 14.3672C82.875 14.6224 82.526 14.8177 82.125 14.9531C81.724 15.0885 81.2812 15.1562 80.7969 15.1562C80.375 15.1562 79.9505 15.0911 79.5234 14.9609C79.1016 14.8307 78.7161 14.6276 78.3672 14.3516C78.0234 14.0755 77.7474 13.7214 77.5391 13.2891C77.3307 12.8568 77.2266 12.3411 77.2266 11.7422H78.125C78.125 12.2161 78.2031 12.6198 78.3594 12.9531C78.5208 13.2812 78.7292 13.5469 78.9844 13.75C79.2396 13.9479 79.526 14.0938 79.8438 14.1875C80.1615 14.276 80.4818 14.3203 80.8047 14.3203C81.2943 14.3203 81.7161 14.2318 82.0703 14.0547C82.4297 13.8776 82.7057 13.6302 82.8984 13.3125C83.0964 12.9896 83.1953 12.6146 83.1953 12.1875ZM90.2422 13.4844V8.88281C90.2422 8.48698 90.1745 8.16667 90.0391 7.92188C89.9036 7.67188 89.7057 7.48958 89.4453 7.375C89.1849 7.26042 88.8646 7.20312 88.4844 7.20312C88.125 7.20312 87.8047 7.27604 87.5234 7.42188C87.2474 7.5625 87.0312 7.76042 86.875 8.01562C86.724 8.26562 86.6484 8.55469 86.6484 8.88281L85.7812 8.875C85.7812 8.55208 85.8464 8.24219 85.9766 7.94531C86.1068 7.64323 86.2917 7.3776 86.5312 7.14844C86.7708 6.91406 87.0573 6.72917 87.3906 6.59375C87.7292 6.45833 88.1042 6.39062 88.5156 6.39062C89.0208 6.39062 89.4688 6.47135 89.8594 6.63281C90.25 6.79427 90.5547 7.0599 90.7734 7.42969C90.9974 7.79948 91.1094 8.28906 91.1094 8.89844V13.2188C91.1094 13.5156 91.1276 13.8203 91.1641 14.1328C91.2057 14.4453 91.2604 14.7005 91.3281 14.8984V15H90.4062C90.349 14.8177 90.3073 14.5859 90.2812 14.3047C90.2552 14.0182 90.2422 13.7448 90.2422 13.4844ZM90.4219 10.0625L90.4453 10.8047H88.9453C88.5391 10.8047 88.1823 10.849 87.875 10.9375C87.5677 11.026 87.3099 11.1536 87.1016 11.3203C86.8984 11.487 86.7448 11.6849 86.6406 11.9141C86.5365 12.1432 86.4844 12.4036 86.4844 12.6953C86.4844 13.0703 86.5443 13.3776 86.6641 13.6172C86.7839 13.8516 86.9583 14.026 87.1875 14.1406C87.4219 14.25 87.7005 14.3047 88.0234 14.3047C88.4505 14.3047 88.8255 14.2214 89.1484 14.0547C89.4766 13.8828 89.7448 13.6562 89.9531 13.375C90.1615 13.0885 90.2969 12.7865 90.3594 12.4688L90.5938 13C90.5417 13.2396 90.4453 13.4844 90.3047 13.7344C90.1641 13.9844 89.9818 14.2188 89.7578 14.4375C89.5339 14.651 89.2682 14.8255 88.9609 14.9609C88.6536 15.0964 88.3073 15.1641 87.9219 15.1641C87.4583 15.1641 87.0521 15.0755 86.7031 14.8984C86.3594 14.7214 86.0911 14.4531 85.8984 14.0938C85.7109 13.7344 85.6172 13.2917 85.6172 12.7656C85.6172 12.375 85.6823 12.0156 85.8125 11.6875C85.9479 11.3594 86.1484 11.0755 86.4141 10.8359C86.6797 10.5911 87.013 10.401 87.4141 10.2656C87.8151 10.1302 88.2812 10.0625 88.8125 10.0625H90.4219ZM94.4531 3V15H93.5859V3H94.4531ZM96.5547 11.2109V10.3359C96.5547 9.69531 96.6276 9.13021 96.7734 8.64062C96.9245 8.15104 97.1354 7.73958 97.4062 7.40625C97.6823 7.06771 98.0104 6.8151 98.3906 6.64844C98.7708 6.47656 99.1875 6.39062 99.6406 6.39062C100.104 6.39062 100.523 6.47656 100.898 6.64844C101.279 6.8151 101.604 7.06771 101.875 7.40625C102.151 7.73958 102.365 8.15104 102.516 8.64062C102.667 9.13021 102.742 9.69531 102.742 10.3359V11.2109C102.742 11.8516 102.667 12.4193 102.516 12.9141C102.365 13.4036 102.151 13.8151 101.875 14.1484C101.604 14.4818 101.279 14.7344 100.898 14.9062C100.523 15.0781 100.107 15.1641 99.6484 15.1641C99.1901 15.1641 98.7708 15.0781 98.3906 14.9062C98.0156 14.7344 97.6901 14.4818 97.4141 14.1484C97.138 13.8099 96.9245 13.3958 96.7734 12.9062C96.6276 12.4167 96.5547 11.8516 96.5547 11.2109ZM97.4297 10.3359V11.2109C97.4297 11.6953 97.4766 12.1302 97.5703 12.5156C97.6693 12.901 97.8151 13.2292 98.0078 13.5C98.2005 13.7708 98.4323 13.9792 98.7031 14.125C98.9792 14.2708 99.2943 14.3438 99.6484 14.3438C100.023 14.3438 100.349 14.2708 100.625 14.125C100.906 13.9792 101.138 13.7708 101.32 13.5C101.508 13.2292 101.646 12.901 101.734 12.5156C101.828 12.1302 101.875 11.6953 101.875 11.2109V10.3359C101.875 9.86198 101.826 9.43229 101.727 9.04688C101.628 8.66146 101.479 8.33333 101.281 8.0625C101.089 7.78646 100.854 7.57552 100.578 7.42969C100.302 7.27865 99.9896 7.20312 99.6406 7.20312C99.2969 7.20312 98.987 7.27865 98.7109 7.42969C98.4349 7.57552 98.2005 7.78646 98.0078 8.0625C97.8203 8.33333 97.6771 8.66146 97.5781 9.04688C97.4792 9.43229 97.4297 9.86198 97.4297 10.3359ZM105.609 8.35156V15H104.742V6.54688H105.57L105.609 8.35156ZM105.414 10.25L105.031 10.0234C105.052 9.52344 105.133 9.05469 105.273 8.61719C105.419 8.17969 105.617 7.79427 105.867 7.46094C106.117 7.1224 106.411 6.85938 106.75 6.67188C107.089 6.48438 107.464 6.39062 107.875 6.39062C108.224 6.39062 108.539 6.44792 108.82 6.5625C109.102 6.67708 109.339 6.85677 109.531 7.10156C109.729 7.34635 109.88 7.66667 109.984 8.0625C110.089 8.45833 110.141 8.9349 110.141 9.49219V15H109.273V9.48438C109.273 8.90625 109.208 8.45312 109.078 8.125C108.948 7.79688 108.76 7.5651 108.516 7.42969C108.276 7.28906 107.987 7.21875 107.648 7.21875C107.289 7.21875 106.971 7.3151 106.695 7.50781C106.424 7.70052 106.193 7.95052 106 8.25781C105.812 8.5651 105.669 8.89583 105.57 9.25C105.471 9.59896 105.419 9.93229 105.414 10.25ZM117.156 3.625V15H116.258V3.625H117.156ZM121.516 8.84375V9.69531H116.883V8.84375H121.516ZM122.172 3.625V4.46094H116.883V3.625H122.172ZM124.594 7.9375V15H123.727V6.54688H124.57L124.594 7.9375ZM127.055 6.49219L127.031 7.35938C126.938 7.33854 126.849 7.32552 126.766 7.32031C126.682 7.3099 126.591 7.30469 126.492 7.30469C126.164 7.30469 125.878 7.3776 125.633 7.52344C125.388 7.66927 125.18 7.875 125.008 8.14062C124.841 8.40104 124.711 8.70573 124.617 9.05469C124.529 9.39844 124.477 9.77083 124.461 10.1719L124.156 10.3047C124.156 9.75781 124.203 9.2474 124.297 8.77344C124.391 8.29948 124.534 7.88281 124.727 7.52344C124.924 7.16406 125.172 6.88542 125.469 6.6875C125.771 6.48958 126.125 6.39062 126.531 6.39062C126.625 6.39062 126.721 6.40104 126.82 6.42188C126.924 6.4375 127.003 6.46094 127.055 6.49219ZM130.797 14.1484L132.969 6.54688H133.898L130.922 16.3516C130.859 16.5443 130.779 16.7578 130.68 16.9922C130.586 17.2318 130.461 17.4583 130.305 17.6719C130.154 17.8906 129.964 18.0677 129.734 18.2031C129.51 18.3438 129.237 18.4141 128.914 18.4141C128.831 18.4141 128.721 18.401 128.586 18.375C128.451 18.3542 128.354 18.3333 128.297 18.3125L128.289 17.5156C128.336 17.526 128.404 17.5365 128.492 17.5469C128.581 17.5573 128.643 17.5625 128.68 17.5625C128.961 17.5625 129.198 17.5052 129.391 17.3906C129.583 17.276 129.745 17.1042 129.875 16.875C130.01 16.651 130.128 16.3724 130.227 16.0391L130.797 14.1484ZM128.859 6.54688L131.031 13.7812L131.266 14.7734L130.633 15.1641L127.906 6.54688H128.859ZM140.578 14.1797V15H135.297V14.1797H140.578ZM140.305 7.25L135.516 15H134.984V14.2891L139.758 6.54688H140.305V7.25ZM139.922 6.54688V7.36719H135.102V6.54688H139.922ZM142.344 6.54688H143.227V16.0078C143.227 16.5234 143.154 16.9609 143.008 17.3203C142.867 17.6797 142.659 17.9505 142.383 18.1328C142.107 18.3203 141.763 18.4141 141.352 18.4141C141.242 18.4141 141.125 18.401 141 18.375C140.87 18.349 140.755 18.3125 140.656 18.2656L140.664 17.4766C140.737 17.4974 140.828 17.5182 140.938 17.5391C141.047 17.5651 141.148 17.5781 141.242 17.5781C141.482 17.5781 141.682 17.5182 141.844 17.3984C142.005 17.2839 142.128 17.1094 142.211 16.875C142.299 16.6458 142.344 16.3568 142.344 16.0078V6.54688ZM142.211 4.10938C142.211 3.92708 142.26 3.77604 142.359 3.65625C142.464 3.53125 142.604 3.46875 142.781 3.46875C142.964 3.46875 143.107 3.53125 143.211 3.65625C143.315 3.77604 143.367 3.92708 143.367 4.10938C143.367 4.28646 143.315 4.4349 143.211 4.55469C143.107 4.67448 142.964 4.73438 142.781 4.73438C142.604 4.73438 142.464 4.67448 142.359 4.55469C142.26 4.4349 142.211 4.28646 142.211 4.10938ZM148.5 15.1641C148.031 15.1641 147.599 15.0885 147.203 14.9375C146.812 14.7812 146.474 14.5469 146.188 14.2344C145.906 13.9167 145.688 13.5182 145.531 13.0391C145.375 12.5547 145.297 11.9844 145.297 11.3281V10.3516C145.297 9.65365 145.38 9.05469 145.547 8.55469C145.714 8.04948 145.938 7.63802 146.219 7.32031C146.505 6.9974 146.831 6.76302 147.195 6.61719C147.56 6.46615 147.945 6.39062 148.352 6.39062C148.815 6.39062 149.221 6.46615 149.57 6.61719C149.924 6.76823 150.221 6.9974 150.461 7.30469C150.701 7.61198 150.88 8 151 8.46875C151.12 8.93229 151.18 9.48177 151.18 10.1172V10.8438H145.82V10.0312H150.312V9.8125C150.302 9.26042 150.224 8.79167 150.078 8.40625C149.938 8.01562 149.724 7.71875 149.438 7.51562C149.156 7.30729 148.797 7.20312 148.359 7.20312C148.036 7.20312 147.74 7.26302 147.469 7.38281C147.198 7.4974 146.964 7.67969 146.766 7.92969C146.573 8.17969 146.424 8.50521 146.32 8.90625C146.221 9.30729 146.172 9.78906 146.172 10.3516V11.3281C146.172 11.8438 146.227 12.2917 146.336 12.6719C146.451 13.0469 146.612 13.3594 146.82 13.6094C147.029 13.8542 147.279 14.0391 147.57 14.1641C147.862 14.2839 148.185 14.3438 148.539 14.3438C148.977 14.3438 149.359 14.2708 149.688 14.125C150.016 13.974 150.307 13.7474 150.562 13.4453L151.023 14.0234C150.867 14.2266 150.674 14.4167 150.445 14.5938C150.216 14.7656 149.943 14.9036 149.625 15.0078C149.307 15.112 148.932 15.1641 148.5 15.1641ZM153.906 7.9375V15H153.039V6.54688H153.883L153.906 7.9375ZM156.367 6.49219L156.344 7.35938C156.25 7.33854 156.161 7.32552 156.078 7.32031C155.995 7.3099 155.904 7.30469 155.805 7.30469C155.477 7.30469 155.19 7.3776 154.945 7.52344C154.701 7.66927 154.492 7.875 154.32 8.14062C154.154 8.40104 154.023 8.70573 153.93 9.05469C153.841 9.39844 153.789 9.77083 153.773 10.1719L153.469 10.3047C153.469 9.75781 153.516 9.2474 153.609 8.77344C153.703 8.29948 153.846 7.88281 154.039 7.52344C154.237 7.16406 154.484 6.88542 154.781 6.6875C155.083 6.48958 155.438 6.39062 155.844 6.39062C155.938 6.39062 156.034 6.40104 156.133 6.42188C156.237 6.4375 156.315 6.46094 156.367 6.49219ZM162.117 12.9219C162.117 12.6875 162.055 12.474 161.93 12.2812C161.81 12.0885 161.609 11.8984 161.328 11.7109C161.052 11.5234 160.674 11.3203 160.195 11.1016C159.815 10.9297 159.474 10.763 159.172 10.6016C158.87 10.4401 158.615 10.2682 158.406 10.0859C158.203 9.90365 158.044 9.69792 157.93 9.46875C157.82 9.23438 157.766 8.95833 157.766 8.64062C157.766 8.32292 157.826 8.02865 157.945 7.75781C158.065 7.48698 158.234 7.25 158.453 7.04688C158.677 6.83854 158.943 6.67708 159.25 6.5625C159.562 6.44792 159.911 6.39062 160.297 6.39062C160.849 6.39062 161.32 6.4974 161.711 6.71094C162.102 6.91927 162.404 7.20833 162.617 7.57812C162.831 7.94792 162.938 8.375 162.938 8.85938H162.062C162.062 8.56771 161.992 8.29688 161.852 8.04688C161.716 7.79688 161.518 7.59375 161.258 7.4375C160.997 7.28125 160.677 7.20312 160.297 7.20312C159.906 7.20312 159.586 7.27344 159.336 7.41406C159.091 7.54948 158.911 7.72396 158.797 7.9375C158.688 8.15104 158.633 8.375 158.633 8.60938C158.633 8.78125 158.659 8.9349 158.711 9.07031C158.768 9.20052 158.862 9.32812 158.992 9.45312C159.128 9.57292 159.315 9.70052 159.555 9.83594C159.799 9.96615 160.102 10.1224 160.461 10.3047C160.982 10.5286 161.43 10.7526 161.805 10.9766C162.18 11.1953 162.469 11.4531 162.672 11.75C162.875 12.0417 162.977 12.4115 162.977 12.8594C162.977 13.2083 162.914 13.526 162.789 13.8125C162.664 14.0938 162.487 14.3359 162.258 14.5391C162.029 14.737 161.75 14.8906 161.422 15C161.099 15.1042 160.74 15.1562 160.344 15.1562C159.74 15.1562 159.227 15.0417 158.805 14.8125C158.388 14.5833 158.07 14.2812 157.852 13.9062C157.638 13.5312 157.531 13.125 157.531 12.6875H158.398C158.419 13.1302 158.529 13.4714 158.727 13.7109C158.93 13.9505 159.177 14.1146 159.469 14.2031C159.76 14.2917 160.052 14.3359 160.344 14.3359C160.724 14.3359 161.047 14.2734 161.312 14.1484C161.578 14.0234 161.779 13.8542 161.914 13.6406C162.049 13.4219 162.117 13.1823 162.117 12.9219ZM165.906 3V15H165.039V3H165.906ZM170.336 6.54688L167.062 10.4688L165.594 12.1094L165.484 11.1641L166.641 9.69531L169.25 6.54688H170.336ZM169.578 15L166.703 10.6172L167.164 9.78906L170.609 15H169.578ZM172.953 6.54688V15H172.086V6.54688H172.953ZM171.953 4.11719C171.953 3.92969 172.003 3.77604 172.102 3.65625C172.206 3.53125 172.349 3.46875 172.531 3.46875C172.708 3.46875 172.846 3.53125 172.945 3.65625C173.049 3.77604 173.102 3.92969 173.102 4.11719C173.102 4.28906 173.049 4.4349 172.945 4.55469C172.846 4.67448 172.708 4.73438 172.531 4.73438C172.349 4.73438 172.206 4.67448 172.102 4.55469C172.003 4.4349 171.953 4.28906 171.953 4.11719Z" fill="white"/>
<path d="M79.25 31.25H81.0469L87.9375 51.25L94.8594 31.25H96.6406L88.6406 54H87.2656L79.25 31.25ZM78.7031 31.25H80.2812L80.5 44.0938V54H78.7031V31.25ZM95.6406 31.25H97.2188V54H95.4375V44.0938L95.6406 31.25ZM107.844 54.3281C106.906 54.3281 106.042 54.1771 105.25 53.875C104.469 53.5625 103.792 53.0938 103.219 52.4688C102.656 51.8333 102.219 51.0365 101.906 50.0781C101.594 49.1094 101.438 47.9688 101.438 46.6562V44.7031C101.438 43.3073 101.604 42.1094 101.938 41.1094C102.271 40.099 102.719 39.276 103.281 38.6406C103.854 37.9948 104.505 37.526 105.234 37.2344C105.964 36.9323 106.734 36.7812 107.547 36.7812C108.474 36.7812 109.286 36.9323 109.984 37.2344C110.693 37.5365 111.286 37.9948 111.766 38.6094C112.245 39.224 112.604 40 112.844 40.9375C113.083 41.8646 113.203 42.9635 113.203 44.2344V45.6875H102.484V44.0625H111.469V43.625C111.448 42.5208 111.292 41.5833 111 40.8125C110.719 40.0312 110.292 39.4375 109.719 39.0312C109.156 38.6146 108.438 38.4062 107.562 38.4062C106.917 38.4062 106.323 38.526 105.781 38.7656C105.24 38.9948 104.771 39.3594 104.375 39.8594C103.99 40.3594 103.693 41.0104 103.484 41.8125C103.286 42.6146 103.188 43.5781 103.188 44.7031V46.6562C103.188 47.6875 103.297 48.5833 103.516 49.3438C103.745 50.0938 104.068 50.7188 104.484 51.2188C104.901 51.7083 105.401 52.0781 105.984 52.3281C106.568 52.5677 107.214 52.6875 107.922 52.6875C108.797 52.6875 109.562 52.5417 110.219 52.25C110.875 51.9479 111.458 51.4948 111.969 50.8906L112.891 52.0469C112.578 52.4531 112.193 52.8333 111.734 53.1875C111.276 53.5312 110.729 53.8073 110.094 54.0156C109.458 54.224 108.708 54.3281 107.844 54.3281ZM118.844 30V54H117.109V30H118.844ZM132.297 50.9688V41.7656C132.297 40.974 132.161 40.3333 131.891 39.8438C131.62 39.3438 131.224 38.9792 130.703 38.75C130.182 38.5208 129.542 38.4062 128.781 38.4062C128.062 38.4062 127.422 38.5521 126.859 38.8438C126.307 39.125 125.875 39.5208 125.562 40.0312C125.26 40.5312 125.109 41.1094 125.109 41.7656L123.375 41.75C123.375 41.1042 123.505 40.4844 123.766 39.8906C124.026 39.2865 124.396 38.7552 124.875 38.2969C125.354 37.8281 125.927 37.4583 126.594 37.1875C127.271 36.9167 128.021 36.7812 128.844 36.7812C129.854 36.7812 130.75 36.9427 131.531 37.2656C132.312 37.5885 132.922 38.1198 133.359 38.8594C133.807 39.599 134.031 40.5781 134.031 41.7969V50.4375C134.031 51.0312 134.068 51.6406 134.141 52.2656C134.224 52.8906 134.333 53.401 134.469 53.7969V54H132.625C132.51 53.6354 132.427 53.1719 132.375 52.6094C132.323 52.0365 132.297 51.4896 132.297 50.9688ZM132.656 44.125L132.703 45.6094H129.703C128.891 45.6094 128.177 45.6979 127.562 45.875C126.948 46.0521 126.432 46.3073 126.016 46.6406C125.609 46.974 125.302 47.3698 125.094 47.8281C124.885 48.2865 124.781 48.8073 124.781 49.3906C124.781 50.1406 124.901 50.7552 125.141 51.2344C125.38 51.7031 125.729 52.0521 126.188 52.2812C126.656 52.5 127.214 52.6094 127.859 52.6094C128.714 52.6094 129.464 52.4427 130.109 52.1094C130.766 51.7656 131.302 51.3125 131.719 50.75C132.135 50.1771 132.406 49.5729 132.531 48.9375L133 50C132.896 50.4792 132.703 50.9688 132.422 51.4688C132.141 51.9688 131.776 52.4375 131.328 52.875C130.88 53.3021 130.349 53.651 129.734 53.9219C129.12 54.1927 128.427 54.3281 127.656 54.3281C126.729 54.3281 125.917 54.151 125.219 53.7969C124.531 53.4427 123.995 52.9062 123.609 52.1875C123.234 51.4688 123.047 50.5833 123.047 49.5312C123.047 48.75 123.177 48.0312 123.438 47.375C123.708 46.7188 124.109 46.151 124.641 45.6719C125.172 45.1823 125.839 44.8021 126.641 44.5312C127.443 44.2604 128.375 44.125 129.438 44.125H132.656ZM140.531 40.7031V54H138.797V37.0938H140.453L140.531 40.7031ZM140.141 44.5L139.375 44.0469C139.417 43.0469 139.578 42.1094 139.859 41.2344C140.151 40.3594 140.547 39.5885 141.047 38.9219C141.547 38.2448 142.135 37.7188 142.812 37.3438C143.49 36.9688 144.24 36.7812 145.062 36.7812C145.76 36.7812 146.391 36.8958 146.953 37.125C147.516 37.3542 147.99 37.7135 148.375 38.2031C148.771 38.6927 149.073 39.3333 149.281 40.125C149.49 40.9167 149.594 41.8698 149.594 42.9844V54H147.859V42.9688C147.859 41.8125 147.729 40.9062 147.469 40.25C147.208 39.5938 146.833 39.1302 146.344 38.8594C145.865 38.5781 145.286 38.4375 144.609 38.4375C143.891 38.4375 143.255 38.6302 142.703 39.0156C142.161 39.401 141.698 39.901 141.312 40.5156C140.938 41.1302 140.651 41.7917 140.453 42.5C140.255 43.1979 140.151 43.8646 140.141 44.5ZM156.156 37.0938V54H154.422V37.0938H156.156ZM154.156 32.2344C154.156 31.8594 154.255 31.5521 154.453 31.3125C154.661 31.0625 154.948 30.9375 155.312 30.9375C155.667 30.9375 155.943 31.0625 156.141 31.3125C156.349 31.5521 156.453 31.8594 156.453 32.2344C156.453 32.5781 156.349 32.8698 156.141 33.1094C155.943 33.349 155.667 33.4688 155.312 33.4688C154.948 33.4688 154.661 33.349 154.453 33.1094C154.255 32.8698 154.156 32.5781 154.156 32.2344ZM162.75 40.7031V54H161.016V37.0938H162.672L162.75 40.7031ZM162.359 44.5L161.594 44.0469C161.635 43.0469 161.797 42.1094 162.078 41.2344C162.37 40.3594 162.766 39.5885 163.266 38.9219C163.766 38.2448 164.354 37.7188 165.031 37.3438C165.708 36.9688 166.458 36.7812 167.281 36.7812C167.979 36.7812 168.609 36.8958 169.172 37.125C169.734 37.3542 170.208 37.7135 170.594 38.2031C170.99 38.6927 171.292 39.3333 171.5 40.125C171.708 40.9167 171.812 41.8698 171.812 42.9844V54H170.078V42.9688C170.078 41.8125 169.948 40.9062 169.688 40.25C169.427 39.5938 169.052 39.1302 168.562 38.8594C168.083 38.5781 167.505 38.4375 166.828 38.4375C166.109 38.4375 165.474 38.6302 164.922 39.0156C164.38 39.401 163.917 39.901 163.531 40.5156C163.156 41.1302 162.87 41.7917 162.672 42.5C162.474 43.1979 162.37 43.8646 162.359 44.5Z" fill="white"/>
</svg>
